<?xml version="1.0" encoding="UTF-8" standalone="no"?>
<!DOCTYPE svg PUBLIC "-//W3C//DTD SVG 1.1//EN"
 "http://www.w3.org/Graphics/SVG/1.1/DTD/svg11.dtd">
<!-- Generated by graphviz version 2.40.1 (20161225.0304)
 -->
<!-- Title: G Pages: 1 -->
<svg width="134pt" height="165pt"
 viewBox="0.00 0.00 134.21 165.00" xmlns="http://www.w3.org/2000/svg" xmlns:xlink="http://www.w3.org/1999/xlink">
<g id="graph0" class="graph" transform="scale(1 1) rotate(0) translate(4 161)">
<title>G</title>
<polygon fill="#ffffff" stroke="transparent" points="-4,4 -4,-161 130.2075,-161 130.2075,4 -4,4"/>
<g id="clust1" class="cluster">
<title>cluster_Global</title>
<path fill="none" stroke="#c0c0c0" d="M20,-8C20,-8 106.2075,-8 106.2075,-8 112.2075,-8 118.2075,-14 118.2075,-20 118.2075,-20 118.2075,-137 118.2075,-137 118.2075,-143 112.2075,-149 106.2075,-149 106.2075,-149 20,-149 20,-149 14,-149 8,-143 8,-137 8,-137 8,-20 8,-20 8,-14 14,-8 20,-8"/>
<text text-anchor="middle" x="63.1038" y="-136.2" font-family="Times,serif" font-size="11.00" fill="#c0c0c0">Global</text>
</g>
<g id="clust2" class="cluster">
<title>cluster_\Chatopera</title>
<path fill="none" stroke="#c0c0c0" d="M28,-16C28,-16 98.2075,-16 98.2075,-16 104.2075,-16 110.2075,-22 110.2075,-28 110.2075,-28 110.2075,-110 110.2075,-110 110.2075,-116 104.2075,-122 98.2075,-122 98.2075,-122 28,-122 28,-122 22,-122 16,-116 16,-110 16,-110 16,-28 16,-28 16,-22 22,-16 28,-16"/>
<text text-anchor="middle" x="63.1038" y="-109.2" font-family="Times,serif" font-size="11.00" fill="#c0c0c0">Chatopera</text>
</g>
<g id="clust3" class="cluster">
<title>cluster_\Chatopera\SDK</title>
<path fill="none" stroke="#c0c0c0" d="M36,-24C36,-24 90.2075,-24 90.2075,-24 96.2075,-24 102.2075,-30 102.2075,-36 102.2075,-36 102.2075,-83 102.2075,-83 102.2075,-89 96.2075,-95 90.2075,-95 90.2075,-95 36,-95 36,-95 30,-95 24,-89 24,-83 24,-83 24,-36 24,-36 24,-30 30,-24 36,-24"/>
<text text-anchor="middle" x="63.1038" y="-82.2" font-family="Times,serif" font-size="11.00" fill="#c0c0c0">SDK</text>
</g>
<!-- \\Chatopera\\SDK\\Chatbot -->
<g id="node1" class="node">
<title>\\Chatopera\\SDK\\Chatbot</title>
<polygon fill="none" stroke="#000000" points="94.3116,-68 31.8959,-68 31.8959,-32 94.3116,-32 94.3116,-68"/>
<text text-anchor="middle" x="63.1038" y="-46.7" font-family="Courier,monospace" font-size="11.00" fill="#000000">Chatbot</text>
</g>
</g>
</svg>
